# xmcd
#
# Track frame offsets:
#	150
#	7432
#	24565
#	40101
#	60676
#	76491
#	100778
#	117501
#	132262
#	144201
#	165613
#	188063
#
# Disc length: 2873 seconds
#
# Revision: 0
# Processed by: cddbd v1.5.1PL2 Copyright (c) Steve Scherf et al.
# Submitted via: dBpowerAMP V4.0
#
DISCID=9e0b370c
DTITLE=DeYarmond Edison - Silent Signs
DYEAR=2005
DGENRE=
TTITLE0=Lift
TTITLE1=Silent Signs
TTITLE2=Heroin(e)
TTITLE3=Love Long Gone
TTITLE4=Frist Impression
TTITLE5=Bones
TTITLE6=Heart for Hire
TTITLE7=Dead Anchor
TTITLE8=Ragstock
TTITLE9=We
TTITLE10=Dash
TTITLE11=Time to Know
EXTD=
EXTT0=
EXTT1=
EXTT2=
EXTT3=
EXTT4=
EXTT5=
EXTT6=
EXTT7=
EXTT8=
EXTT9=
EXTT10=
EXTT11=
PLAYORDER=
